PathFileType	4	(X/Y/Z)	7_coords_data.trc
DataRate	CameraRate	NumFrames	NumMarkers	Units	OrigDataRate	OrigDataStartFrame	OrigNumFrames
30.0	30.0	6	21	m	30.0	76	86
Frame#	Time	THUMB_TIP	THUMB_IP	THUMB_MCP	THUMB_CMC	INDEX_TIP	INDEX_DIP	INDEX_PIP	INDEX_MCP	MIDDLE_TIP	MIDDLE_DIP	MIDDLE_PIP	MIDDLE_MCP	RING_TIP	RING_DIP	RING_PIP	RING_MCP	PINKY_TIP	PINKY_DIP	PINKY_PIP	PINKY_MCP	WRIST
X1	Y1	Z1	X2	Y2	Z2	X3	Y3	Z3	X4	Y4	Z4	X5	Y5	Z5	X6	Y6	Z6	X7	Y7	Z7	X8	Y8	Z8	X9	Y9	Z9	X10	Y10	Z10	X11	Y11	Z11	X12	Y12	Z12	X13	Y13	Z13	X14	Y14	Z14	X15	Y15	Z15	X16	Y16	Z16	X17	Y17	Z17	X18	Y18	Z18	X19	Y19	Z19	X20	Y20	Z20	X21	Y21	Z21
75	2.5	-0.011656700134277343	-0.07375399780273438	0.961843994140625	-0.01771299934387207	-0.055186100006103515	0.9799849853515625	-0.02936800003051758	-0.04099319839477539	1.0029600219726562	-0.030078100204467773	-0.011895000457763672	1.0200399780273437	-0.007896339893341065	-0.03304510116577149	0.889927978515625	-0.021655599594116212	-0.02884499931335449	0.906864013671875	-0.03293289947509766	-0.0249685001373291	0.9261929931640625	-0.038181400299072264	-0.01923940086364746	0.9616890258789063	-0.0018318300247192382	0.0045135002136230465	0.8736829833984375	-0.013548500061035156	0.005398769855499267	0.8947760009765625	-0.02608370018005371	0.005247910022735596	0.9198519897460937	-0.03380179977416992	0.003226510047912597	0.9578079833984375	0.012791000366210937	0.018220300674438476	0.8910230102539063	0.000277393996715545	0.021202400207519533	0.9094429931640625	-0.01262380027770996	0.023211000442504882	0.9306710205078125	-0.022210100173950195	0.020161300659179687	0.9621240234375	0.033172401428222656	0.045238399505615236	0.9329459838867188	0.019111400604248048	0.04322589874267578	0.9448779907226562	0.006350820064544678	0.04033110046386719	0.956041015625	-0.010156299591064453	0.03322060012817383	0.9742130126953125	-0.0449286003112793	0.016769699096679688	1.033469970703125
76	2.533333333333333	-0.020031000137329103	-0.0699250030517578	0.9531690063476562	-0.025231899261474608	-0.05293090057373047	0.973030029296875	-0.03551940155029297	-0.040016300201416014	0.9975269775390625	-0.034201400756835934	-0.012446800231933593	1.01652001953125	-0.013375900268554687	-0.0255132999420166	0.88622998046875	-0.027587799072265624	-0.021542900085449217	0.9027689819335938	-0.039282901763916016	-0.018224599838256837	0.9219769897460938	-0.043874099731445314	-0.015028499603271484	0.9577760009765625	-0.005213500022888184	0.011776399612426759	0.872322021484375	-0.017384000778198242	0.012462499618530274	0.8927589721679687	-0.030450199127197267	0.011655900001525879	0.9174249877929688	-0.0377953987121582	0.0073948798179626464	0.955427001953125	0.011029899597167969	0.023058500289916992	0.8909609985351562	-0.001904590010643005	0.026108400344848633	0.9089130249023437	-0.015225899696350098	0.027857099533081055	0.929551025390625	-0.025304700851440428	0.023131399154663085	0.9607080078125	0.03317670059204102	0.0442056999206543	0.9346240234375	0.01860009956359863	0.04311080169677734	0.9460980224609375	0.005317409992218017	0.04094490051269531	0.9565579833984375	-0.012243900299072265	0.034648799896240236	0.9742160034179688	-0.04733300018310547	0.016379600524902345	1.031699951171875
77	2.566666666666667	-0.024755199432373046	-0.06688300323486328	0.9483809814453125	-0.029486299514770508	-0.05069779968261719	0.9691119995117188	-0.03926580047607422	-0.03855070114135742	0.9943289794921875	-0.03741439819335937	-0.011692099571228028	1.0142899780273438	-0.015883600234985352	-0.020433399200439455	0.884583984375	-0.0305664005279541	-0.016725200653076172	0.900530029296875	-0.04286529922485351	-0.013778599739074707	0.9194600219726563	-0.047667198181152344	-0.011961199760437012	0.9552739868164063	-0.007706890106201172	0.01645280075073242	0.8715020141601563	-0.02037299919128418	0.01705999946594238	0.8916420288085938	-0.03388970184326172	0.01589560031890869	0.91581298828125	-0.04128799819946289	0.010466300010681152	0.9537429809570312	0.008438770294189452	0.026990400314331055	0.8905130004882813	-0.004723390102386474	0.030073600769042967	0.908176025390625	-0.01840250015258789	0.03160429954528809	0.9286209716796875	-0.028465700149536134	0.02576189994812012	0.9596019897460938	0.03094540023803711	0.04575279998779297	0.9345139770507812	0.01616270065307617	0.045111000061035154	0.9457999877929687	0.002727750062942505	0.043116199493408204	0.9559910278320313	-0.015215000152587891	0.036726200103759765	0.9735089721679687	-0.04966709899902344	0.01682979965209961	1.0303199462890624
78	2.6	-0.02840559959411621	-0.06541169738769531	0.9467470092773438	-0.03262049865722656	-0.04938719940185547	0.967573974609375	-0.04185630035400391	-0.037300899505615236	0.9932479858398438	-0.039437400817871095	-0.010621199607849121	1.01352001953125	-0.018556699752807618	-0.01851689910888672	0.8837219848632812	-0.033323501586914064	-0.014712100028991698	0.8996959838867188	-0.045599300384521486	-0.011812700271606445	0.9185360107421875	-0.05000189971923828	-0.010272899627685546	0.9543400268554687	-0.010090700149536133	0.01844580078125	0.870906982421875	-0.022755300521850586	0.019026699066162108	0.890989013671875	-0.03624530029296875	0.01779840087890625	0.9152050170898437	-0.04348680114746094	0.012072699546813965	0.9529639892578124	0.006580790042877197	0.028502799987792968	0.8901890258789062	-0.006730239868164062	0.03173880004882813	0.9077340087890625	-0.020440399169921877	0.03334469985961914	0.9281240234375	-0.03068149948120117	0.02737179946899414	0.95914599609375	0.029416900634765625	0.046721000671386716	0.9347780151367188	0.014500699996948242	0.04624129867553711	0.9456420288085937	0.0009338330030441281	0.04439189910888672	0.9556829833984375	-0.017303699493408202	0.038182701110839844	0.9731170043945313	-0.051351200103759764	0.017830299377441405	1.0296500244140625
79	2.6333333333333333	-0.029274200439453123	-0.06380530166625976	0.9462020263671875	-0.033694000244140626	-0.04814080047607422	0.9671920166015625	-0.04286890029907227	-0.036344600677490235	0.9930490112304687	-0.04045740127563477	-0.009848779678344726	1.013489990234375	-0.01976230049133301	-0.017182600021362304	0.8841680297851563	-0.0347510986328125	-0.013469900131225586	0.899875	-0.04718579864501953	-0.010626399993896484	0.918572021484375	-0.051528900146484376	-0.009242019653320312	0.9544609985351562	-0.010145500183105468	0.018815500259399414	0.8718779907226563	-0.023356300354003906	0.019696699142456055	0.8914229736328125	-0.0374718017578125	0.018712799072265626	0.9152940063476562	-0.04529560089111328	0.013258399963378907	0.95339697265625	0.0067177901268005375	0.02854280090332031	0.89172998046875	-0.007173870086669922	0.032256900787353514	0.9084769897460937	-0.021580299377441405	0.03429190063476562	0.9283499755859375	-0.0325255012512207	0.028586000442504884	0.9593790283203125	0.028525800704956056	0.0468578987121582	0.9360989990234375	0.013451600074768066	0.0467843017578125	0.9463909912109375	-0.00038537898659706107	0.04530139923095703	0.9562210083007813	-0.01908679962158203	0.03951279830932617	0.9732979736328125	-0.05232310104370117	0.018415199279785157	1.0297099609375
80	2.6666666666666665	-0.028553199768066407	-0.06269219970703124	0.9463309936523437	-0.03319580078125	-0.047059600830078124	0.9675560302734375	-0.04263280105590821	-0.03549679946899414	0.9934739990234375	-0.0405906982421875	-0.008997220039367676	1.01397998046875	-0.018468399047851563	-0.016016000747680663	0.8852260131835937	-0.03381869888305664	-0.01242549991607666	0.9005250244140625	-0.046709701538085936	-0.00973351001739502	0.9189550170898437	-0.05156919860839844	-0.008506110191345215	0.9549769897460938	-0.00825426959991455	0.01909720039367676	0.8734500122070312	-0.022166200637817383	0.020295799255371092	0.8925130004882813	-0.0370088005065918	0.01949889945983887	0.9159390258789063	-0.04562400054931641	0.014010000228881835	0.9537949829101563	0.007777090072631836	0.02882349967956543	0.8936129760742187	-0.006664179801940918	0.03280099868774414	0.9096170043945313	-0.021699100494384765	0.0352067985534668	0.928948974609375	-0.03335359954833984	0.029694400787353515	0.960010009765625	0.02838920021057129	0.04724309921264649	0.9376699829101562	0.013077500343322754	0.04755939865112305	0.94739697265625	-0.001114189982414245	0.04635850143432617	0.9569970092773438	-0.020130300521850587	0.04080619812011719	0.9739710083007812	-0.05270190048217773	0.019060100555419922	1.0301300048828126
